<?xml version="1.0" encoding="UTF-8"?>
<svg width="23px" height="14px" viewBox="0 0 23 14" version="1.1" xmlns="http://www.w3.org/2000/svg" xmlns:xlink="http://www.w3.org/1999/xlink">
    <title>Fill/01-edition/view-2</title>
    <g id="Page-1" stroke="none" stroke-width="1" fill="none" fill-rule="evenodd">
        <g id="TSF-1027-3" transform="translate(-1356.000000, -707.000000)" fill="#0067C5">
            <g id="Group-7" transform="translate(1138.000000, 702.000000)">
                <g id="Combined-Shape" transform="translate(218.000000, 0.000000)">
                    <path d="M11.52096,5.27999997 C17.5547657,5.27999997 22.372778,11.007262 22.8960132,11.6522039 L22.93632,11.7024 C23.07552,11.87712 23.07552,12.12192 22.93632,12.29856 C22.728,12.55872 17.77824,18.72 11.52096,18.72 C5.48530283,18.72 0.667224443,12.9909527 0.143986875,12.3484656 L0.10367995,12.29856 C-0.0345600501,12.12192 -0.0345600501,11.87616 0.10367995,11.70144 C0.311999951,11.43936 5.26175997,5.27999997 11.52096,5.27999997 Z M11.52096,7.67999998 C9.13823999,7.67999998 7.20095998,9.61727999 7.20095998,12 C7.20095998,14.38272 9.13823999,16.32 11.52096,16.32 C13.9008,16.32 15.84096,14.38272 15.84096,12 C15.84096,9.61727999 13.9008,7.67999998 11.52096,7.67999998 Z M11.52096,8.63999999 C13.37376,8.63999999 14.88096,10.14528 14.88096,12 C14.88096,13.8528 13.37376,15.36 11.52096,15.36 C9.66623999,15.36 8.16095998,13.8528 8.16095998,12 C8.16095998,10.14528 9.66623999,8.63999999 11.52096,8.63999999 Z"></path>
                </g>
            </g>
        </g>
    </g>
</svg>