<?xml version="1.0" encoding="UTF-8"?>
<svg width="24px" height="21px" viewBox="0 0 24 21" version="1.1" xmlns="http://www.w3.org/2000/svg" xmlns:xlink="http://www.w3.org/1999/xlink">
    <title>Outline/32-content/book-2 Copy 3</title>
    <g id="Page-1" stroke="none" stroke-width="1" fill="none" fill-rule="evenodd">
        <g id="Infobox" transform="translate(-32.000000, -1655.000000)" fill="#3E3832">
            <g id="Fill/11-users/account-group-4" transform="translate(32.000000, 1652.000000)">
                <path d="M16,9.99999999 L16,15.5 C16,16.708 15.14,17.718 14,17.95 L14,17.95 L14,24 L9.99999998,24 L9.99999998,17.95 C8.86099999,17.718 7.99999998,16.708 7.99999998,15.5 L7.99999998,15.5 L7.99999998,9.99999999 L16,9.99999999 Z M5.99999995,9.99999999 L5.99999995,13.5 C5.99899997,14.583 5.66399997,15.23 4.99999995,15.432 L4.99999995,15.432 L4.99999995,19.5 L0.99999995,19.5 L0.99999995,15.432 C0.335999951,15.23 -4.99999908e-08,14.583 -4.99999908e-08,13.5 L-4.99999908e-08,13.5 L-4.99999908e-08,9.99999999 L5.99999995,9.99999999 Z M24,9.99999999 L24,13.5 C23.999,14.583 23.664,15.23 23,15.432 L23,15.432 L23,19.5 L19,19.5 L19,15.432 C18.336,15.23 18,14.583 18,13.5 L18,13.5 L18,9.99999999 L24,9.99999999 Z M21,4.99999997 C22.104,4.99999997 23,5.89699997 23,6.99999997 C23,8.10299998 22.104,8.99999997 21,8.99999997 C19.898,8.99999997 19,8.10299998 19,6.99999997 C19,5.89699997 19.898,4.99999997 21,4.99999997 Z M2.99999995,4.99999997 C4.10399997,4.99999997 4.99999995,5.89699997 4.99999995,6.99999997 C4.99999995,8.10299998 4.10399997,8.99999997 2.99999995,8.99999997 C1.89799996,8.99999997 0.999999954,8.10299998 0.999999954,6.99999997 C0.999999954,5.89699997 1.89799996,4.99999997 2.99999995,4.99999997 Z M12,2.99999996 C13.6568543,2.99999996 15,4.34314572 15,5.99999996 C15,7.65685423 13.6568543,8.99999996 12,8.99999996 C10.3431457,8.99999996 8.99999999,7.65685423 8.99999999,5.99999996 C8.99999999,4.34314572 10.3431457,2.99999996 12,2.99999996 Z" id="Combined-Shape"></path>
            </g>
        </g>
    </g>
</svg>