<svg width="25" height="26" viewBox="0 0 25 26" fill="none"
  xmlns="http://www.w3.org/2000/svg">
  <path d="M12.7129 0.996338L12.49 0.998511C9.14218 1.0572 5.99105 2.41021 3.6182 4.80867C1.22796 7.22453 -0.0557513 10.387 0.00185806 13.7146C0.121425 20.6014 5.51822 25.996 12.2879 25.996L12.5085 25.9939C19.5151 25.8732 25.1184 20.1678 24.9978 13.2788C24.8782 6.39207 19.4814 0.996338 12.7129 0.996338Z" fill="#FFAA33"/>
  <path fill-rule="evenodd" clip-rule="evenodd" d="M13.5414 7.04142C13.5414 6.46613 13.0751 5.99976 12.4998 5.99976C11.9245 5.99976 11.4581 6.46613 11.4581 7.04142V14.3331C11.4581 14.9084 11.9245 15.3748 12.4998 15.3748C13.0751 15.3748 13.5414 14.9084 13.5414 14.3331V7.04142ZM12.5002 20.5838H12.5283C13.3892 20.5681 14.0782 19.8572 14.0625 18.9948C14.0469 18.1417 13.3517 17.4589 12.5002 17.4589C12.4955 17.4589 12.4908 17.4593 12.4861 17.4597C12.4814 17.4601 12.4767 17.4605 12.472 17.4605C11.6096 17.4746 10.9221 18.187 10.9378 19.0495C10.9518 19.9026 11.6487 20.5838 12.5002 20.5838Z" fill="#262626"/>
</svg>
