<svg width="24" height="24" viewBox="0 0 24 24" fill="none"
  xmlns="http://www.w3.org/2000/svg">
  <path fill-rule="evenodd" clip-rule="evenodd" d="M0.000976668 13.8837L0.000976701 11.1137L2.76998 11.1137L2.76998 13.8837L0.000976668 13.8837ZM3.53798 12.1117L3.53798 9.3417L6.30698 9.3417L6.30698 12.1117L3.53798 12.1117ZM7.07298 5.8007L7.07298 8.5707L9.84298 8.5707L9.84298 5.8007L7.07298 5.8007ZM10.611 8.5687L10.611 5.7987L13.381 5.7987L13.381 8.5687L10.611 8.5687ZM10.614 9.3357L10.614 12.1057L13.383 12.1057L13.383 9.3357L10.614 9.3357ZM14.152 12.1047L14.152 9.3347L16.921 9.3347L16.921 12.1047L14.152 12.1047ZM17.69 12.1027L17.69 9.3327L20.459 9.3327L20.459 12.1027L17.69 12.1027ZM10.609 5.0297L10.609 2.2597L13.378 2.2597L13.378 5.0297L10.609 5.0297ZM7.07598 9.3407L7.07598 12.1097L9.84498 12.1097L9.84498 9.3407L7.07598 9.3407ZM21.229 9.3297L21.229 12.0987L23.998 12.0987L23.998 9.3297L21.229 9.3297ZM17.693 15.6397L17.693 12.8697L20.462 12.8697L20.462 15.6397L17.693 15.6397ZM14.155 12.8727L14.155 15.6417L16.924 15.6417L16.924 12.8727L14.155 12.8727ZM10.617 15.6447L10.617 12.8757L13.386 12.8757L13.386 15.6447L10.617 15.6447ZM7.07898 12.8767L7.07898 15.6467L9.84798 15.6467L9.84798 12.8767L7.07898 12.8767ZM10.619 19.1827L10.619 16.4127L13.389 16.4127L13.389 19.1827L10.619 19.1827ZM10.621 19.9517L10.621 22.7207L13.391 22.7207L13.391 19.9517L10.621 19.9517ZM7.08098 19.1857L7.08098 16.4167L9.85098 16.4167L9.85098 19.1857L7.08098 19.1857ZM3.54098 12.8787L3.54098 15.6487L6.30998 15.6487L6.30998 12.8787L3.54098 12.8787ZM21.23 12.8677L21.23 15.6377L24 15.6377L24 12.8677L21.23 12.8677Z" fill="#523874"/>
</svg>
