<svg width="22" height="24" viewBox="0 0 22 24" fill="none"
  xmlns="http://www.w3.org/2000/svg">
  <path fill-rule="evenodd" clip-rule="evenodd" d="M11 0C13.4189 0 15.4366 1.71767 15.8999 3.99981L22 4V6H20V20C20 22.2091 18.2091 24 16 24H6C3.79086 24 2 22.2091 2 20V6H0V4L6.10006 3.99981C6.5634 1.71767 8.58111 0 11 0ZM8.66856 4H8.17004L8.24235 3.8169C8.3716 3.51603 8.54865 3.24054 8.76394 3C9.31326 2.38625 10.1115 2 11 2L11.1763 2.00509L11.3786 2.02365C12.1137 2.11621 12.7661 2.47481 13.2362 3C13.449 3.23782 13.6245 3.50979 13.7533 3.80669L13.829 4H13.3079H13.2598H12.7327H9.26736H8.70601H8.66856ZM9 9V19H7V9H9ZM15 9V19H13V9H15Z" fill="#262626"/>
</svg>
