<?xml version="1.0" encoding="UTF-8"?>
<svg width="34px" height="34px" viewBox="0 0 34 34" version="1.1" xmlns="http://www.w3.org/2000/svg" xmlns:xlink="http://www.w3.org/1999/xlink">
    <title>Fill/24-business-finance/graph-pie-2</title>
    <g id="Page-1" stroke="none" stroke-width="1" fill="none" fill-rule="evenodd">
        <g id="254V5" transform="translate(-39.000000, -914.000000)" fill="#3E3832">
            <g id="Group-20" transform="translate(21.000000, 822.000000)">
                <g id="Group-19" transform="translate(18.000000, 92.000000)">
                    <g id="Fill/22-time/calendar-2">
                        <path d="M33.9999999,11.3333333 L33.9999999,33.2916667 C33.9999999,33.6826667 33.6826667,34.0000001 33.2916667,34.0000001 L33.2916667,34.0000001 L0.708333265,34.0000001 C0.317333264,34.0000001 -7.083332e-08,33.6826667 -7.083332e-08,33.2916667 L-7.083332e-08,33.2916667 L-7.083332e-08,11.3333333 L33.9999999,11.3333333 Z M23.375,12.75 C22.984,12.75 22.6666667,13.0673333 22.6666667,13.4583333 L22.6666667,13.4583333 L22.6666667,15.5833333 L17,15.5833333 L17,13.4583333 C17,13.0673333 16.6826667,12.75 16.2916667,12.75 C15.9006667,12.75 15.5833333,13.0673333 15.5833333,13.4583333 L15.5833333,13.4583333 L15.5833333,15.5833333 L9.91666664,15.5833333 L9.91666664,13.4583333 C9.91666664,13.0673333 9.5993333,12.75 9.2083333,12.75 C8.8173333,12.75 8.49999996,13.0673333 8.49999996,13.4583333 L8.49999996,13.4583333 L8.49999996,15.5833333 L3.54166661,15.5833333 C3.15066661,15.5833333 2.83333327,15.9006667 2.83333327,16.2916667 C2.83333327,16.6826667 3.15066661,17 3.54166661,17 L3.54166661,17 L8.49999996,17 L8.49999996,21.25 L3.54166661,21.25 C3.15066661,21.25 2.83333327,21.5673334 2.83333327,21.9583334 C2.83333327,22.3493334 3.15066661,22.6666667 3.54166661,22.6666667 L3.54166661,22.6666667 L8.49999996,22.6666667 L8.49999996,26.9166667 L3.54166661,26.9166667 C3.15066661,26.9166667 2.83333327,27.234 2.83333327,27.625 C2.83333327,28.016 3.15066661,28.3333334 3.54166661,28.3333334 L3.54166661,28.3333334 L8.49999996,28.3333334 L8.49999996,30.4583334 C8.49999996,30.8493334 8.8173333,31.1666667 9.2083333,31.1666667 C9.5993333,31.1666667 9.91666664,30.8493334 9.91666664,30.4583334 L9.91666664,30.4583334 L9.91666664,28.3333334 L15.5833333,28.3333334 L15.5833333,30.4583334 C15.5833333,30.8493334 15.9006667,31.1666667 16.2916667,31.1666667 C16.6826667,31.1666667 17,30.8493334 17,30.4583334 L17,30.4583334 L17,28.3333334 L22.6666667,28.3333334 L22.6666667,30.4583334 C22.6666667,30.8493334 22.984,31.1666667 23.375,31.1666667 C23.766,31.1666667 24.0833334,30.8493334 24.0833334,30.4583334 L24.0833334,30.4583334 L24.0833334,28.3333334 L30.4583334,28.3333334 C30.8493334,28.3333334 31.1666667,28.016 31.1666667,27.625 C31.1666667,27.234 30.8493334,26.9166667 30.4583334,26.9166667 L30.4583334,26.9166667 L24.0833334,26.9166667 L24.0833334,22.6666667 L30.4583334,22.6666667 C30.8493334,22.6666667 31.1666667,22.3493334 31.1666667,21.9583334 C31.1666667,21.5673334 30.8493334,21.25 30.4583334,21.25 L30.4583334,21.25 L24.0833334,21.25 L24.0833334,17 L30.4583334,17 C30.8493334,17 31.1666667,16.6826667 31.1666667,16.2916667 C31.1666667,15.9006667 30.8493334,15.5833333 30.4583334,15.5833333 L30.4583334,15.5833333 L24.0833334,15.5833333 L24.0833334,13.4583333 C24.0833334,13.0673333 23.766,12.75 23.375,12.75 Z M22.6666667,22.6666667 L22.6666667,26.9166667 L17,26.9166667 L17,22.6666667 L22.6666667,22.6666667 Z M15.5833333,22.6666667 L15.5833333,26.9166667 L9.91666664,26.9166667 L9.91666664,22.6666667 L15.5833333,22.6666667 Z M22.6666667,17 L22.6666667,21.25 L17,21.25 L17,17 L22.6666667,17 Z M15.5833333,17 L15.5833333,21.25 L9.91666664,21.25 L9.91666664,17 L15.5833333,17 Z M10.625,-7.08314592e-08 C11.016,-7.08314592e-08 11.3333333,0.317333264 11.3333333,0.708333265 L11.3333333,0.708333265 L11.3333333,2.83333327 L22.6666667,2.83333327 L22.6666667,0.708333265 C22.6666667,0.317333264 22.984,-7.08314592e-08 23.375,-7.08314592e-08 L23.375,-7.08314592e-08 L27.625,-7.08314592e-08 C28.016,-7.08314592e-08 28.3333334,0.317333264 28.3333334,0.708333265 L28.3333334,0.708333265 L28.3333334,2.83333327 L33.2916667,2.83333327 C33.6826667,2.83333327 33.9999999,3.15066661 33.9999999,3.54166661 L33.9999999,3.54166661 L33.9999999,9.91666664 L-7.083332e-08,9.91666664 L-7.083332e-08,3.54166661 C-7.083332e-08,3.15066661 0.317333264,2.83333327 0.708333265,2.83333327 L0.708333265,2.83333327 L5.66666662,2.83333327 L5.66666662,0.708333265 C5.66666662,0.317333264 5.98399995,-7.08314592e-08 6.37499996,-7.08314592e-08 L6.37499996,-7.08314592e-08 Z M9.91666664,1.4166666 L7.08333329,1.4166666 L7.08333329,5.66666662 L9.91666664,5.66666662 L9.91666664,1.4166666 Z M26.9166667,1.4166666 L24.0833334,1.4166666 L24.0833334,5.66666662 L26.9166667,5.66666662 L26.9166667,1.4166666 Z" id="Combined-Shape"></path>
                    </g>
                </g>
            </g>
        </g>
    </g>
</svg>
