<svg width="17" height="17" viewBox="0 0 17 17" fill="none"
  xmlns="http://www.w3.org/2000/svg">
  <path fill-rule="evenodd" clip-rule="evenodd" d="M4.25 4.95833V3.54167H1.41667L1.41667 7.08333H15.5833V3.54167H12.75V4.95833C12.75 5.34954 12.4329 5.66667 12.0417 5.66667C11.6505 5.66667 11.3333 5.34954 11.3333 4.95833V3.54167H5.66667V4.95833C5.66667 5.34954 5.34954 5.66667 4.95833 5.66667C4.56713 5.66667 4.25 5.34954 4.25 4.95833ZM11.3333 2.125H5.66667V0.708333C5.66667 0.317132 5.34954 0 4.95833 0C4.56713 0 4.25 0.317132 4.25 0.708333V2.125H1.41667C0.634263 2.125 0 2.75926 0 3.54167V15.5833C0 16.3657 0.634263 17 1.41667 17H15.5833C16.3657 17 17 16.3657 17 15.5833V3.54167C17 2.75926 16.3657 2.125 15.5833 2.125H12.75V0.708333C12.75 0.317132 12.4329 0 12.0417 0C11.6505 0 11.3333 0.317132 11.3333 0.708333V2.125ZM1.41667 8.5L1.41667 15.5833H15.5833V8.5H1.41667ZM4.95833 9.91667H3.54167C3.15047 9.91667 2.83333 10.2338 2.83333 10.625C2.83333 11.0162 3.15047 11.3333 3.54167 11.3333H4.95833C5.34954 11.3333 5.66667 11.0162 5.66667 10.625C5.66667 10.2338 5.34954 9.91667 4.95833 9.91667ZM3.54167 12.75H4.95833C5.34954 12.75 5.66667 13.0671 5.66667 13.4583C5.66667 13.8495 5.34954 14.1667 4.95833 14.1667H3.54167C3.15047 14.1667 2.83333 13.8495 2.83333 13.4583C2.83333 13.0671 3.15047 12.75 3.54167 12.75ZM9.20833 9.91667H7.79167C7.40047 9.91667 7.08333 10.2338 7.08333 10.625C7.08333 11.0162 7.40047 11.3333 7.79167 11.3333H9.20833C9.59953 11.3333 9.91667 11.0162 9.91667 10.625C9.91667 10.2338 9.59953 9.91667 9.20833 9.91667ZM7.79167 12.75H9.20833C9.59953 12.75 9.91667 13.0671 9.91667 13.4583C9.91667 13.8495 9.59953 14.1667 9.20833 14.1667H7.79167C7.40047 14.1667 7.08333 13.8495 7.08333 13.4583C7.08333 13.0671 7.40047 12.75 7.79167 12.75ZM14.1667 10.625C14.1667 10.2338 13.8495 9.91667 13.4583 9.91667H12.0417C11.6505 9.91667 11.3333 10.2338 11.3333 10.625C11.3333 11.0162 11.6505 11.3333 12.0417 11.3333H13.4583C13.8495 11.3333 14.1667 11.0162 14.1667 10.625ZM11.3333 13.4583C11.3333 13.0671 11.6505 12.75 12.0417 12.75H13.4583C13.8495 12.75 14.1667 13.0671 14.1667 13.4583C14.1667 13.8495 13.8495 14.1667 13.4583 14.1667H12.0417C11.6505 14.1667 11.3333 13.8495 11.3333 13.4583Z" fill="#262626"/>
</svg>
