<?xml version="1.0" encoding="utf-8"?>
<!DOCTYPE svg PUBLIC "-//W3C//DTD SVG 1.1//EN" "http://www.w3.org/Graphics/SVG/1.1/DTD/svg11.dtd">
<svg version="1.1" id="Filled_Version" xmlns="http://www.w3.org/2000/svg"
     x="0px"
     y="0px" width="24px" height="24px" viewBox="0 0 24 24" enable-background="new 0 0 24 24" xml:space="preserve">
  <g>
    <path d="M3.415,11h11.086c0.552,0,1-0.448,1-1c0-0.553-0.448-1-1-1H3.415l2.293-2.293c0.391-0.391,0.391-1.023,0-1.414
      s-1.024-0.391-1.414,0l-4,3.999c-0.391,0.391-0.387,1.03,0,1.415l4,4C4.489,14.902,4.745,15,5.001,15s0.512-0.098,0.707-0.293
      c0.391-0.391,0.391-1.023,0-1.414L3.415,11z"/>
    <path d="M23.707,13.292l-3.999-3.999c-0.391-0.391-1.024-0.391-1.414,0c-0.391,0.391-0.391,1.023,0,1.414L20.587,13H9.501
      c-0.553,0-1,0.447-1,1c0,0.552,0.447,1,1,1h11.086l-2.293,2.293c-0.391,0.391-0.391,1.023,0,1.414
      C18.489,18.902,18.745,19,19.001,19s0.512-0.098,0.707-0.293l3.999-4C24.094,14.32,24.098,13.684,23.707,13.292z"/>
  </g>
</svg>
