<?xml version="1.0" encoding="UTF-8"?>
<svg width="24px" height="22px" viewBox="0 0 24 22" version="1.1" xmlns="http://www.w3.org/2000/svg" xmlns:xlink="http://www.w3.org/1999/xlink">
    <title>Fill/01-edition/view-2</title>
    <g id="Page-1" stroke="none" stroke-width="1" fill="none" fill-rule="evenodd">
        <g id="TSF-1027-4" transform="translate(-1356.000000, -703.000000)" fill="#0067C5">
            <g id="Group-7" transform="translate(1138.000000, 702.000000)">
                <g id="Combined-Shape" transform="translate(218.000000, 0.000000)">
                    <path d="M21.655,1.53099996 C22.054,1.14699995 22.685,1.17599995 23.051,1.54899996 C23.437,1.93399996 23.443,2.56599996 23.05,2.96099996 L23.05,2.96099996 L3.54999996,22.461 C3.54799996,22.463 3.54599996,22.465 3.54499996,22.465 C3.16899996,22.838 2.51699996,22.838 2.13999996,22.465 L2.13999996,22.465 C1.70699996,22.037 1.78299996,21.326 2.13599996,21.049 L2.13599996,21.049 L21.636,1.54899996 C21.642,1.54099996 21.649,1.53699996 21.655,1.53099996 Z M19.667,8.96899999 C20.016,8.53999999 20.645,8.47099999 21.074,8.82099999 C23.132,10.489 23.882,12.12 23.913,12.188 C24.0580001,12.512 24.0200001,12.891 23.812,13.181 C23.61,13.464 18.786,20.099 11.999,20.099 C11.454,20.099 10.898,20.056 10.343,19.97 C9.79799999,19.886 9.42499999,19.372 9.50899999,18.827 C9.59499999,18.282 10.107,17.907 10.652,17.993 C11.105,18.063 11.559,18.098 12,18.098 C16.764,18.098 20.596,13.965 21.795,12.512 C21.468,12.016 20.842,11.207 19.814,10.373 C19.386,10.026 19.319,9.39499999 19.667,8.96899999 Z M12,5.09799997 C12.379,5.09799997 12.768,5.12099997 13.154,5.16199997 C13.703,5.22299997 14.1,5.71699997 14.039,6.26399998 C13.979,6.81499998 13.486,7.21199998 12.936,7.15099998 C12.621,7.11599998 12.307,7.09799997 12,7.09799997 C7.23499998,7.09799997 3.40099996,11.234 2.20199996,12.685 C2.52399996,13.174 3.13299996,13.965 4.13699997,14.783 C4.56599997,15.132 4.62999997,15.761 4.28099997,16.191 C3.92799997,16.621 3.29899996,16.682 2.87399996,16.334 C0.843999954,14.678 0.11599995,13.072 0.0859999504,13.004 C-0.0580000502,12.68 -0.0190000501,12.305 0.185999951,12.018 C0.388999952,11.735 5.21199997,5.09799997 12,5.09799997 Z M16.399,11.026 C16.519,11.405 16.583,11.807 16.583,12.223 C16.583,14.428 14.788,16.223 12.583,16.223 C12.167,16.223 11.764,16.158 11.386,16.04 L11.386,16.04 Z M12.584,8.22199998 C12.882,8.22199998 13.171,8.25899998 13.45,8.31999998 L13.45,8.31999998 L8.67999999,13.09 C8.61799999,12.811 8.58299999,12.522 8.58299999,12.223 C8.58299999,10.018 10.377,8.22299998 12.584,8.22199998 Z"></path>
                </g>
            </g>
        </g>
    </g>
</svg>