<?xml version="1.0" encoding="utf-8"?>
<!DOCTYPE svg PUBLIC "-//W3C//DTD SVG 1.1//EN" "http://www.w3.org/Graphics/SVG/1.1/DTD/svg11.dtd">
<svg version="1.1" id="Filled_Version" xmlns="http://www.w3.org/2000/svg" xmlns:xlink="http://www.w3.org/1999/xlink" x="0px"
     y="0px" width="24px" height="24px" viewBox="0 0 24 24" enable-background="new 0 0 24 24" xml:space="preserve">
<g>
	<path d="M12,24c6.617,0,12-5.385,12-12c0-6.617-5.383-12-12-12S0,5.383,0,12C0,18.615,5.383,24,12,24z M12,5c2.205,0,4,1.793,4,4
		c0,1.418-0.73,2.695-1.93,3.418l0.924,6.006c0.021,0.143-0.02,0.291-0.115,0.4C14.785,18.936,14.646,19,14.5,19h-5
		c-0.146,0-0.285-0.064-0.379-0.176c-0.096-0.109-0.138-0.256-0.115-0.4l0.922-6.006C8.73,11.695,8,10.418,8,9C8,6.793,9.794,5,12,5
		z"/>
</g>
</svg>
