<?xml version="1.0" encoding="utf-8"?>
<svg version="1.1" id="pil_opp_goyreFilled_Version" xmlns="http://www.w3.org/2000/svg" x="0px" y="0px" width="24px" height="24px" viewBox="0 0 24 24" enable-background="new 0 0 24 24" xml:space="preserve">
    <path d="M23,0h-7c-0.553,0-1,0.448-1,1c0,0.553,0.447,1,1,1h4.586L6.293,16.293c-0.391,0.391-0.391,1.023,0,1.414C6.488,17.902,6.744,18,7,18s0.512-0.098,0.707-0.293L22,3.414V8c0,0.553,0.447,1,1,1c0.552,0,1-0.447,1-1V1C24,0.448,23.543,0,23,0z" stroke="#0067C5" fill="#0067C5"/>
</svg>
