<?xml version="1.0" encoding="UTF-8"?>
<svg width="12px" height="24px" viewBox="0 0 12 24" version="1.1" xmlns="http://www.w3.org/2000/svg" xmlns:xlink="http://www.w3.org/1999/xlink">
    <title>Outline/32-content/book-2 Copy 4</title>
    <g id="Page-1" stroke="none" stroke-width="1" fill="none" fill-rule="evenodd">
        <g id="Infobox" transform="translate(-82.000000, -1652.000000)" fill="#3E3832">
            <g id="Fill/11-users/male" transform="translate(76.000000, 1652.000000)">
                <path d="M18,8.99999999 L18,9.49999999 C18,14.326 15.917,16.423 14.5,17.289 L14.5,17.289 L14.5,24 L9.49999997,24 L9.49999997,17.289 C8.08299998,16.423 5.99999997,14.328 5.99999997,9.49999999 L5.99999997,9.49999999 L5.99999997,8.99999999 L18,8.99999999 Z M12,-5.00010868e-08 C14.206,-5.00010868e-08 16,1.79499996 16,3.99999995 C16,6.20599998 14.206,7.99999995 12,7.99999995 C9.79399999,7.99999995 7.99999998,6.20599998 7.99999998,3.99999995 C7.99999998,1.79499996 9.79399999,-5.00010868e-08 12,-5.00010868e-08 Z" id="Combined-Shape"></path>
            </g>
        </g>
    </g>
</svg>